<svg xmlns="http://www.w3.org/2000/svg" width="197.212" height="65" viewBox="0 0 197.212 65">
  <g id="ai_logo_1_" data-name="ai logo (1)" transform="translate(-115.251 -38.01)">
    <path id="Path_29329" data-name="Path 29329" d="M58.266,9.7H14.056A6.346,6.346,0,0,0,7.7,15.915V60.549a6.394,6.394,0,0,0,6.356,6.215H58.337a6.315,6.315,0,0,0,6.285-6.356V16.056A6.375,6.375,0,0,0,58.266,9.7M30.794,48.825v.989a14.045,14.045,0,0,1-.494,3.814A5.974,5.974,0,0,1,25,57.935a1.616,1.616,0,0,1-1.554-1.554,1.4,1.4,0,0,1,.989-1.412c2.542-.989,3.037-1.695,2.9-4.026H25.214a1.87,1.87,0,0,1-1.836-1.836V46a1.823,1.823,0,0,1,1.836-1.836h3.743A1.823,1.823,0,0,1,30.794,46Zm0-18.574a1.885,1.885,0,0,1-1.836,1.907h-3.6a1.885,1.885,0,0,1-1.836-1.907V27A1.933,1.933,0,0,1,25.356,25.1h3.6A1.885,1.885,0,0,1,30.794,27Zm19.774,7.91v.353a34.085,34.085,0,0,1-2.119,11.794,45.269,45.269,0,0,1-5.791,10.947h-.071a2.1,2.1,0,0,1-1.836,1.2,2.125,2.125,0,0,1-2.119-2.119,2.18,2.18,0,0,1,.141-.777v-.071A61.655,61.655,0,0,0,42.588,48.9a47.607,47.607,0,0,0,1.2-10.735,48.074,48.074,0,0,0-1.2-10.735,76.608,76.608,0,0,0-3.814-10.593,1.656,1.656,0,0,1-.141-.777,2.081,2.081,0,0,1,2.119-2.119,1.961,1.961,0,0,1,1.836,1.13h.071a45.27,45.27,0,0,1,5.791,10.947,34.381,34.381,0,0,1,2.119,11.794Z" transform="translate(107.551 36.185)" fill="#171717"/>
    <text id="Lavan" transform="translate(178.463 91.01)" fill="#171717" font-size="49" font-family="SegoeUI-Bold, Segoe UI" font-weight="700"><tspan x="0" y="0">Lavan</tspan></text>
  </g>
</svg>
